<?xml version="1.0" encoding="UTF-8"?>
<svg version="1.1" xmlns="http://www.w3.org/2000/svg" width="275" height="275">
<path d="M0 0 C3.63728522 0.00259992 7.27456842 0.00016631 10.91185379 -0.00138617 C16.99250632 -0.00318257 23.07314651 -0.00086538 29.15379715 0.00395441 C36.14385164 0.00943166 43.1338771 0.00759924 50.12393093 0.00212801 C56.19431014 -0.00242922 62.2646807 -0.00304212 68.33506107 -0.00043333 C71.93165755 0.00111013 75.52824041 0.00137633 79.12483597 -0.00196981 C83.12083504 -0.00543159 87.1167848 -0.00061628 91.11278152 0.00493097 C92.2734816 0.00290674 93.43418167 0.00088251 94.63005447 -0.00120306 C117.53352751 0.05732548 117.53352751 0.05732548 125.61668777 5.1343255 C126.2888533 5.53659357 126.96101883 5.93886164 127.65355301 6.35331964 C141.88068237 15.12463784 152.36475129 27.91485444 156.67918777 44.2593255 C158.96311292 56.93556569 158.58006901 70.24715922 158.56200027 83.0874505 C158.56344673 84.69146493 158.56524753 86.29547907 158.56737137 87.89949274 C158.57975381 102.17982283 158.52766414 116.46036352 158.46925735 130.74055719 C158.43191743 140.44301496 158.43363226 150.14345603 158.50641441 159.84573603 C158.55279661 166.17264677 158.5658554 172.49901561 158.55294991 178.82608271 C158.54691798 182.49619915 158.55743704 186.1643899 158.61137772 189.83415461 C158.89823311 210.37861084 156.09278655 224.81573185 142.92918777 240.8843255 C130.19676475 253.72863274 115.87358136 258.05372624 98.06222916 258.38829279 C95.34607121 258.40003335 92.63130477 258.4014419 89.91527176 258.39311457 C88.40574857 258.39583206 86.89622671 258.39939721 85.38670731 258.40373468 C81.32684979 258.41277005 77.26709512 258.40935161 73.20723605 258.40297651 C68.93543796 258.39787117 64.66364799 258.40262037 60.39184952 258.40574884 C53.22272047 258.40937499 46.05363279 258.40462463 38.88451004 258.39506769 C30.62347838 258.3841816 22.36254546 258.38771532 14.10151619 258.3987205 C6.97755006 258.40782709 -0.14638652 258.40906235 -7.2703566 258.40384316 C-11.51159814 258.40074247 -15.75279343 258.40026145 -19.99403191 258.40691614 C-23.98243786 258.41273844 -27.97071777 258.40860441 -31.95911026 258.39712763 C-33.41344304 258.39450713 -34.86778662 258.39520083 -36.32211494 258.39965296 C-55.13562329 258.45189044 -70.91052329 255.07460094 -85.13331223 242.0718255 C-95.68973184 230.97405104 -100.3547829 217.82915588 -101.12501144 202.85795832 C-101.16712187 202.06352949 -101.20923229 201.26910067 -101.25261879 200.45059824 C-101.64717555 192.48392531 -101.7153848 184.53097045 -101.70362473 176.5562005 C-101.70498684 175.00121767 -101.7066963 173.44623511 -101.70872116 171.89125299 C-101.71294453 166.88892242 -101.70589644 161.88664562 -101.69581223 156.8843255 C-101.69410019 156.02845598 -101.69238815 155.17258646 -101.69062424 154.2907815 C-101.67359743 146.27875828 -101.65198086 138.26675641 -101.61994553 130.25477839 C-101.58235839 120.62509023 -101.57161152 110.99634925 -101.60618782 101.36664057 C-101.62761936 94.93964228 -101.62030174 88.51308877 -101.5909481 82.08612299 C-101.57472473 78.33205852 -101.57141329 74.57911971 -101.60212326 70.8251214 C-101.76271062 49.59377673 -99.89716767 33.13468893 -84.57081223 17.1343255 C-83.90694504 16.43049738 -83.24307785 15.72666925 -82.55909348 15.001513 C-74.86803637 7.52370148 -63.8796334 1.21144481 -53.04810715 0.82258844 C-51.34597816 0.76065207 -51.34597816 0.76065207 -49.60946274 0.69746447 C-48.37338776 0.65874287 -47.13731277 0.62002127 -45.86378098 0.58012629 C-43.9239257 0.51696065 -43.9239257 0.51696065 -41.94488144 0.45251894 C-27.96538861 0.02115495 -13.98510111 -0.01320784 0 0 Z M-33.57081223 75.1343255 C-34.3107341 75.84202082 -35.05065598 76.54971613 -35.81299973 77.27885675 C-47.81343645 89.48941785 -52.49614315 105.9552998 -52.94581223 122.6968255 C-52.47172065 142.44377031 -45.14524844 157.94998475 -31.88331223 172.3218255 C-18.38184831 185.13090665 0.34848288 193.167361 18.99559402 193.126513 C26.17299986 192.77035263 32.68061061 191.6067305 39.42918777 189.1343255 C39.42918777 183.4860104 34.14327671 179.70964961 30.38890457 175.84013605 C23.12027821 168.94963266 17.12933395 168.4654376 7.50975418 168.27446222 C-3.23442004 167.5507875 -12.73502309 160.64898503 -19.60206223 152.81791925 C-27.63558904 142.21434466 -30.9196663 128.83978759 -29.26221848 115.68510675 C-26.95153697 102.65940659 -21.47051915 92.12388327 -10.57081223 84.2593255 C-0.00968624 77.391354 8.17580366 75.94314767 20.74168777 75.8843255 C22.37654129 75.853388 22.37654129 75.853388 24.04442215 75.8218255 C37.58372003 75.75669358 47.86971305 80.64004017 57.74168777 89.9468255 C67.41440499 100.25381926 71.07693914 111.71295037 70.71043777 125.71635675 C69.91403981 135.39480419 66.25555826 142.83942136 61.42918777 151.1343255 C60.75090604 152.46178778 60.07962228 153.79299885 59.42918777 155.1343255 C66.45368366 160.0983026 71.63057433 163.2560214 80.42918777 163.1343255 C91.38040542 145.16582276 96.18559211 128.24798726 92.17918777 107.1030755 C87.34046147 87.9497839 74.01269422 71.25507726 57.17528152 61.189013 C27.18567892 45.17221966 -10.00033248 51.04845626 -33.57081223 75.1343255 Z M15.80418777 139.0093255 C14.39266434 139.25295832 14.39266434 139.25295832 12.95262527 139.501513 C10.20708443 140.03998022 10.20708443 140.03998022 7.42918777 142.1343255 C12.75074415 154.27412598 26.45117641 164.69853936 36.42918777 173.1343255 C37.21422684 173.84330988 37.9992659 174.55229425 38.80809402 175.282763 C55.04323816 189.46129425 72.32268318 193.17793701 93.42918777 194.1343255 C93.42918777 197.4343255 93.42918777 200.7343255 93.42918777 204.1343255 C98.40692017 201.45400806 102.61917945 198.53799129 106.86668777 194.8218255 C107.42509354 194.34124689 107.9834993 193.86066828 108.55882645 193.36552668 C110.18760932 191.96112776 111.80933326 190.54900529 113.42918777 189.1343255 C114.29285965 188.38409113 115.15653152 187.63385675 116.04637527 186.860888 C117.8462772 185.2915785 119.64113385 183.71710435 121.42918777 182.1343255 C117.71404409 178.26496831 113.79228703 174.91632428 109.55418777 171.6343255 C108.96766434 171.17413019 108.3811409 170.71393488 107.77684402 170.23979425 C101.11260714 164.2088044 101.11260714 164.2088044 93.42918777 161.1343255 C93.42918777 164.4343255 93.42918777 167.7343255 93.42918777 171.1343255 C71.10845978 169.48735917 71.10845978 169.48735917 63.42918777 165.1343255 C62.71375809 164.73600519 61.9983284 164.33768488 61.26121902 163.92729425 C52.80069891 158.73118721 45.41776166 151.42998861 38.74168777 144.1343255 C34.70371117 140.01736647 29.71825944 138.29877909 24.00731277 138.01323175 C21.21112494 138.14456785 18.55942969 138.51596263 15.80418777 139.0093255 Z " fill="#2E5CA7" transform="translate(108.5708122253418,9.865674495697021)"/>
</svg>
